<svg width="19" height="21" viewBox="0 0 19 21" fill="none" xmlns="http://www.w3.org/2000/svg">
<path fill-rule="evenodd" clip-rule="evenodd" d="M14.2591 0.625H4.93264C2.3681 0.625 0.269424 2.90237 0.269424 5.6875V15.8125C0.269424 18.5966 2.3681 20.875 4.93264 20.875H14.2591C16.8236 20.875 18.9223 18.5966 18.9223 15.8125V5.6875C18.9223 2.90237 16.8236 0.625 14.2591 0.625ZM9.59585 14.9686C7.44937 14.9686 5.70976 13.0793 5.70976 10.75C5.70976 8.41973 7.44937 6.53117 9.59585 6.53117C11.7414 6.53117 13.4819 8.41973 13.4819 10.75C13.4819 13.0793 11.7414 14.9686 9.59585 14.9686ZM13.4819 5.26554C13.4819 5.96442 14.0033 6.53117 14.6477 6.53117C15.2922 6.53117 15.8135 5.96442 15.8135 5.26554C15.8135 4.56666 15.2922 3.99992 14.6477 3.99992C14.0033 3.99992 13.4819 4.56666 13.4819 5.26554Z" fill="#0A142F"/>
</svg>
