<svg width="127" height="127" viewBox="0 0 127 127" fill="none" xmlns="http://www.w3.org/2000/svg">
<path d="M44.2033 113.01C44.306 112.627 44.4976 112.272 44.7784 111.947C45.0547 111.62 45.3884 111.369 45.7793 111.196C46.2069 111.008 46.6775 110.899 47.191 110.866C47.7001 110.833 48.2847 110.905 48.945 111.082C49.6538 111.271 50.2744 111.508 50.8068 111.793C51.3349 112.076 51.8569 112.426 52.3728 112.842L51.934 114.48L51.8415 114.455C51.455 113.908 50.966 113.435 50.3747 113.036C49.7834 112.637 49.2016 112.36 48.6293 112.207C47.8193 111.99 47.1491 111.973 46.6188 112.157C46.084 112.339 45.7487 112.683 45.6131 113.189C45.4963 113.625 45.5181 113.975 45.6783 114.24C45.8342 114.504 46.1147 114.751 46.5198 114.982C46.8264 115.159 47.1657 115.328 47.5377 115.489C47.9054 115.648 48.2931 115.83 48.7009 116.034C49.523 116.452 50.0857 116.94 50.3892 117.498C50.6871 118.059 50.7399 118.698 50.5476 119.416C50.327 120.239 49.7988 120.82 48.9629 121.157C48.1259 121.499 47.1725 121.527 46.1028 121.24C45.4117 121.055 44.7955 120.819 44.2542 120.532C43.7129 120.246 43.246 119.946 42.8533 119.633L43.2673 118.088L43.3597 118.113C43.6489 118.53 44.0718 118.924 44.6282 119.295C45.1791 119.669 45.7737 119.942 46.412 120.113C47.1119 120.3 47.7143 120.306 48.2191 120.13C48.7195 119.952 49.0311 119.635 49.1538 119.177C49.2635 118.768 49.2439 118.418 49.0951 118.128C48.9464 117.838 48.6222 117.56 48.1225 117.294C47.8573 117.157 47.4768 116.975 46.9809 116.748C46.4851 116.52 46.0691 116.312 45.7329 116.123C45.054 115.734 44.5822 115.293 44.3174 114.803C44.0527 114.312 44.0146 113.714 44.2033 113.01Z" fill="#B5B5B5"/>
<path d="M36.0725 106.084C36.5471 106.101 36.9824 106.149 37.3783 106.229C37.7702 106.306 38.1578 106.445 38.5412 106.646C39.0295 106.902 39.4403 107.208 39.7738 107.563C40.1051 107.922 40.3398 108.323 40.4778 108.766C40.6199 109.211 40.6552 109.698 40.5836 110.227C40.5121 110.756 40.3206 111.316 40.0093 111.91C39.429 113.015 38.671 113.724 37.7353 114.036C36.7956 114.346 35.8274 114.239 34.8307 113.716C34.4433 113.512 34.0926 113.259 33.7785 112.955C33.4604 112.649 33.1873 112.336 32.9592 112.015L33.6231 110.75L33.6837 110.782C33.8888 111.235 34.1389 111.631 34.4339 111.971C34.7248 112.309 35.0458 112.57 35.3969 112.755C36.0426 113.093 36.6674 113.143 37.2714 112.905C37.8693 112.668 38.3885 112.129 38.829 111.29C39.2568 110.475 39.4045 109.752 39.2722 109.122C39.1337 108.493 38.7336 108.005 38.0718 107.658C37.8418 107.537 37.5919 107.445 37.322 107.38C37.0522 107.316 36.797 107.282 36.5565 107.28C36.3466 107.277 36.1446 107.285 35.9506 107.301C35.7545 107.322 35.5961 107.344 35.4754 107.368L35.4149 107.337L36.0725 106.084Z" fill="#B5B5B5"/>
<path d="M24.1587 102.929L24.2108 102.973C24.327 103.132 24.4487 103.277 24.5757 103.409C24.6964 103.542 24.8504 103.688 25.0378 103.847C25.3399 104.104 25.689 104.285 26.0854 104.388C26.4787 104.496 26.8957 104.554 27.3361 104.564L30.8484 100.435L31.8273 101.267L26.88 107.084L25.9011 106.251L26.6319 105.392C25.9774 105.373 25.4479 105.303 25.0436 105.18C24.6329 105.058 24.273 104.866 23.9641 104.603C23.794 104.459 23.6752 104.349 23.6077 104.273C23.5372 104.201 23.436 104.088 23.3039 103.934L24.1587 102.929Z" fill="#B5B5B5"/>
<path d="M19.6404 92.0346C20.635 91.2871 21.6118 90.9522 22.5707 91.0297C23.5297 91.1072 24.3308 91.574 24.9742 92.4302C25.623 93.2936 25.8513 94.1967 25.6589 95.1393C25.4638 96.0783 24.869 96.9215 23.8744 97.6689C22.8797 98.4163 21.9043 98.7531 20.9482 98.6792C19.9856 98.6045 19.1799 98.1354 18.531 97.2719C17.8877 96.4157 17.664 95.515 17.86 94.5696C18.0523 93.627 18.6458 92.782 19.6404 92.0346ZM20.4371 93.0947C19.6465 93.6888 19.1763 94.2845 19.0265 94.8816C18.873 95.4815 19.0029 96.0565 19.4163 96.6066C19.8352 97.1641 20.3541 97.4525 20.973 97.472C21.5855 97.4906 22.2871 97.2028 23.0777 96.6087C23.8428 96.0338 24.3075 95.4423 24.4719 94.8342C24.6327 94.2288 24.505 93.6492 24.0889 93.0955C23.6782 92.549 23.1616 92.2674 22.5391 92.2506C21.9101 92.233 21.2095 92.5143 20.4371 93.0947Z" fill="#B5B5B5"/>
<path d="M18.1093 79.2636L18.6367 80.4356L8.93712 84.801L8.40967 83.6291L18.1093 79.2636Z" fill="#B5B5B5"/>
<path d="M15.0781 67.2694L15.3352 68.5286L4.91344 70.6562L4.65638 69.3971L15.0781 67.2694Z" fill="#B5B5B5"/>
<path d="M16.9825 46.131L16.6749 47.3788L15.8984 47.1874C16.1198 47.6221 16.2688 48.0555 16.3453 48.4874C16.4219 48.9193 16.4041 49.3632 16.2917 49.8189C16.0736 50.7039 15.5595 51.3235 14.7494 51.6776C13.9403 52.0274 12.9318 52.0534 11.7238 51.7557C11.0955 51.6008 10.5576 51.3743 10.11 51.0763C9.66359 50.7738 9.30542 50.4274 9.03554 50.037C8.77341 49.6532 8.60293 49.2404 8.52409 48.7985C8.44634 48.3522 8.46036 47.9145 8.56616 47.4853C8.66213 47.0959 8.78924 46.7611 8.94747 46.4809C9.10128 46.1997 9.30537 45.9144 9.55974 45.625L6.34729 44.8332L6.65484 43.5854L16.9825 46.131ZM14.8497 46.9289L10.5952 45.8802C10.3618 46.1795 10.1837 46.4547 10.0607 46.706C9.93775 46.9573 9.83756 47.2401 9.76012 47.5542C9.5878 48.2534 9.69702 48.8576 10.0878 49.367C10.4785 49.8763 11.1208 50.2412 12.0147 50.4615C12.8952 50.6785 13.6027 50.6933 14.137 50.5058C14.6669 50.3173 15.0137 49.8911 15.1773 49.2274C15.2645 48.8734 15.2754 48.4959 15.21 48.0949C15.1401 47.6928 15.02 47.3041 14.8497 46.9289Z" fill="#B5B5B5"/>
<path d="M18.422 35.5481C19.535 36.104 20.2711 36.8282 20.6302 37.7207C20.9893 38.6132 20.9296 39.5385 20.4511 40.4966C19.9686 41.4629 19.2626 42.0706 18.3334 42.3196C17.4062 42.5646 16.3861 42.4092 15.273 41.8533C14.1599 41.2974 13.4228 40.5753 13.0617 39.6869C12.6985 38.7923 12.7582 37.8619 13.2408 36.8956C13.7193 35.9375 14.4252 35.3349 15.3585 35.0879C16.2878 34.8388 17.3089 34.9922 18.422 35.5481ZM17.8294 36.7345C16.9447 36.2927 16.2018 36.1381 15.6006 36.2709C14.9953 36.4016 14.539 36.7748 14.2315 37.3904C13.92 38.0142 13.8937 38.6073 14.1528 39.1697C14.4099 39.726 14.9808 40.225 15.8655 40.6669C16.7217 41.0945 17.4586 41.246 18.076 41.1214C18.6894 40.9947 19.1509 40.6215 19.4604 40.0018C19.7658 39.3903 19.787 38.8023 19.5238 38.2378C19.2586 37.6673 18.6938 37.1662 17.8294 36.7345Z" fill="#B5B5B5"/>
<path d="M24.2369 24.7035L28.8934 31.0735L28.1412 31.9949L22.3412 29.7922L25.6682 35.0237L24.9203 35.9398L17.7345 32.6674L18.5819 31.6295L24.0485 34.2837L20.6744 29.0667L21.3445 28.2459L27.1613 30.4712L23.4197 25.7042L24.2369 24.7035Z" fill="#B5B5B5"/>
<path d="M35.5688 23.3977L34.5572 24.1902L31.8759 20.7678C31.6595 20.4916 31.441 20.246 31.2204 20.0309C30.997 19.8122 30.7888 19.6685 30.5959 19.5996C30.3882 19.5192 30.1719 19.5092 29.9471 19.5695C29.7195 19.6263 29.4711 19.7601 29.2021 19.9709C28.9258 20.1873 28.6904 20.4817 28.4959 20.8541C28.3014 21.2265 28.1489 21.6267 28.0385 22.0548L31.5545 26.5427L30.5428 27.3353L25.8337 21.3245L26.8454 20.5319L27.3681 21.1992C27.4787 20.69 27.6449 20.2298 27.8669 19.8185C28.0889 19.4072 28.3775 19.0624 28.7326 18.7842C29.3819 18.2755 30.0302 18.0831 30.6773 18.2072C31.3245 18.3312 31.9362 18.7609 32.5123 19.4963L35.5688 23.3977Z" fill="#B5B5B5"/>
<path d="M51.849 9.33186L51.5874 10.1616L48.8534 9.2848L49.4341 11.6766L48.5738 11.8703L48.0664 9.46203L45.9804 11.4314L45.3817 10.7954L47.6116 8.84272L44.7599 8.03451L45.0281 7.2033L47.7622 8.08007L47.183 5.69495L48.0433 5.50119L48.5358 7.90584L50.6382 5.94682L51.2302 6.58428L49.0039 8.52214L51.849 9.33186Z" fill="#B5B5B5"/>
<path d="M74.4399 14.3943C74.2868 15.0745 73.8788 15.5689 73.216 15.8774C72.5577 16.1869 71.7417 16.2321 70.768 16.0128C70.2168 15.8886 69.7244 15.71 69.2911 15.4769C68.8632 15.2404 68.5112 15.0093 68.235 14.7836L68.5519 13.3765L68.6186 13.3915C68.9472 13.7785 69.3338 14.1155 69.7783 14.4025C70.2239 14.685 70.669 14.8763 71.1136 14.9764C71.6649 15.1006 72.1161 15.1088 72.4674 15.0011C72.8187 14.8933 73.0374 14.6483 73.1235 14.2659C73.1896 13.9725 73.1552 13.7312 73.0203 13.542C72.8854 13.3528 72.5898 13.1507 72.1337 12.9359C71.9649 12.8558 71.742 12.7566 71.465 12.6381C71.1925 12.5207 70.9454 12.4043 70.7238 12.289C70.1093 11.9684 69.7018 11.6104 69.5012 11.2148C69.3061 10.8159 69.2636 10.3719 69.3738 9.88281C69.4429 9.57604 69.5702 9.30108 69.7558 9.05791C69.9458 8.81575 70.1938 8.617 70.4997 8.46167C70.7957 8.30879 71.1484 8.21538 71.5578 8.18145C71.9726 8.14408 72.4179 8.17896 72.8936 8.2861C73.3382 8.38623 73.7747 8.54294 74.2032 8.75622C74.6371 8.96606 74.9877 9.18282 75.255 9.40652L74.9531 10.747L74.8864 10.7319C74.6193 10.4242 74.2749 10.1388 73.853 9.87557C73.4321 9.60794 73.0016 9.42456 72.5615 9.32543C72.1035 9.22229 71.6967 9.2241 71.341 9.33084C70.9863 9.43314 70.7699 9.65768 70.6918 10.0045C70.6227 10.3112 70.6662 10.564 70.8223 10.7626C70.974 10.9603 71.2478 11.1551 71.6437 11.347C71.8629 11.4524 72.1087 11.5639 72.3812 11.6813C72.6582 11.7997 72.8873 11.9027 73.0684 11.9902C73.6208 12.2548 74.0183 12.5849 74.2608 12.9805C74.5024 13.3806 74.5621 13.8518 74.4399 14.3943Z" fill="#B5B5B5"/>
<path d="M85.8296 20.5856C85.3546 20.5872 84.9178 20.5565 84.5189 20.4933C84.1242 20.4322 83.7313 20.3088 83.3402 20.1232C82.842 19.8868 82.4192 19.5979 82.0717 19.2564C81.7262 18.9109 81.4755 18.5196 81.3198 18.0825C81.1599 17.6434 81.105 17.1583 81.1552 16.6273C81.2054 16.0962 81.3741 15.5281 81.6613 14.9229C82.1966 13.7947 82.9255 13.056 83.8478 12.7068C84.7743 12.3595 85.7461 12.4271 86.763 12.9097C87.1583 13.0972 87.5189 13.3365 87.845 13.6274C88.1751 13.9202 88.4606 14.2222 88.7015 14.5332L88.089 15.8239L88.0272 15.7946C87.804 15.3508 87.5382 14.9648 87.2298 14.6369C86.9254 14.3109 86.5941 14.0629 86.2359 13.8929C85.5772 13.5803 84.9508 13.5555 84.3569 13.8185C83.7691 14.0793 83.272 14.6379 82.8656 15.4943C82.471 16.326 82.3525 17.0542 82.5101 17.6788C82.6738 18.3012 83.0932 18.7726 83.7685 19.0931C84.0031 19.2044 84.2566 19.2868 84.5288 19.3404C84.801 19.3939 85.0574 19.4171 85.2978 19.4101C85.5076 19.4038 85.7091 19.3884 85.9022 19.364C86.0974 19.3356 86.2547 19.3068 86.3744 19.2779L86.4362 19.3072L85.8296 20.5856Z" fill="#B5B5B5"/>
<path d="M98.4679 21.4267L98.4141 21.3845C98.2915 21.2306 98.1641 21.0903 98.0319 20.9635C97.906 20.8359 97.7462 20.6963 97.5525 20.5445C97.2404 20.3 96.8843 20.1339 96.4841 20.0461C96.0867 19.9548 95.6677 19.9131 95.2272 19.9212L91.8841 24.1884L90.8724 23.3958L95.5815 17.3851L96.5932 18.1777L95.8976 19.0656C96.5523 19.0575 97.0841 19.1065 97.4931 19.2127C97.9084 19.3181 98.2757 19.4958 98.595 19.746C98.7707 19.8837 98.8939 19.9889 98.9644 20.0615C99.0377 20.1305 99.1434 20.2394 99.2816 20.3881L98.4679 21.4267Z" fill="#B5B5B5"/>
<path d="M106.964 32.6673C106 33.4541 105.038 33.8281 104.077 33.7893C103.115 33.7505 102.296 33.3163 101.619 32.4867C100.936 31.6501 100.671 30.757 100.825 29.8074C100.982 28.8613 101.543 27.9948 102.507 27.208C103.47 26.4211 104.431 26.0453 105.39 26.0806C106.355 26.1166 107.179 26.5529 107.862 27.3895C108.539 28.2191 108.799 29.1101 108.641 30.0626C108.487 31.0122 107.928 31.8804 106.964 32.6673ZM106.125 31.64C106.891 31.0146 107.337 30.4005 107.463 29.7978C107.592 29.1922 107.439 28.6229 107.004 28.0899C106.563 27.5498 106.033 27.2824 105.414 27.2879C104.801 27.294 104.111 27.6098 103.345 28.2352C102.604 28.8405 102.163 29.4502 102.024 30.0645C101.887 30.6758 102.038 31.2498 102.476 31.7863C102.909 32.3159 103.436 32.5764 104.059 32.5681C104.688 32.5604 105.377 32.251 106.125 31.64Z" fill="#B5B5B5"/>
<path d="M107.013 38.7402L106.439 37.5905L115.955 32.838L116.529 33.9878L107.013 38.7402Z" fill="#B5B5B5"/>
<path d="M110.849 47.3342L110.541 46.0864L120.869 43.5409L121.176 44.7887L110.849 47.3342Z" fill="#B5B5B5"/>
<path d="M111.006 73.3827L111.263 72.1235L112.046 72.2835C111.808 71.858 111.641 71.431 111.547 71.0025C111.453 70.574 111.453 70.1298 111.547 69.6699C111.73 68.7769 112.218 68.1371 113.014 67.7506C113.808 67.3686 114.814 67.302 116.033 67.5508C116.668 67.6803 117.214 67.8849 117.673 68.1647C118.132 68.4489 118.503 68.7807 118.789 69.1599C119.066 69.5328 119.253 69.9384 119.35 70.3767C119.445 70.8195 119.449 71.2575 119.361 71.6906C119.28 72.0835 119.167 72.4232 119.02 72.7095C118.878 72.9967 118.685 73.29 118.443 73.5893L121.684 74.2511L121.427 75.5103L111.006 73.3827ZM113.105 72.4995L117.398 73.376C117.619 73.0677 117.786 72.7855 117.899 72.5294C118.011 72.2733 118.1 71.9868 118.165 71.6698C118.309 70.9643 118.175 70.3649 117.764 69.8717C117.353 69.3785 116.697 69.0398 115.795 68.8557C114.906 68.6743 114.199 68.688 113.673 68.8968C113.151 69.1065 112.821 69.5463 112.685 70.2161C112.612 70.5733 112.616 70.9509 112.698 71.349C112.784 71.7479 112.919 72.1315 113.105 72.4995Z" fill="#B5B5B5"/>
<path d="M110.705 86.9054C109.571 86.3948 108.806 85.7008 108.411 84.8235C108.017 83.9461 108.039 83.0192 108.478 82.0426C108.922 81.0576 109.603 80.422 110.521 80.1357C111.438 79.8536 112.463 79.9678 113.598 80.4785C114.732 80.9891 115.498 81.681 115.895 82.5541C116.293 83.4333 116.271 84.3654 115.828 85.3503C115.388 86.3269 114.707 86.9574 113.785 87.2419C112.866 87.5282 111.84 87.416 110.705 86.9054ZM111.25 85.6961C112.151 86.1019 112.9 86.2264 113.495 86.0696C114.095 85.9146 114.536 85.5233 114.818 84.8958C115.104 84.26 115.107 83.6663 114.825 83.1148C114.546 82.5693 113.955 82.0937 113.053 81.6878C112.181 81.295 111.438 81.1733 110.826 81.3227C110.219 81.4739 109.773 81.8654 109.488 82.4971C109.208 83.1204 109.21 83.7088 109.496 84.2622C109.784 84.8216 110.368 85.2995 111.25 85.6961Z" fill="#B5B5B5"/>
<path d="M106.985 102.453L102.075 96.276L102.79 95.3251L108.674 97.2925L105.139 92.1992L105.849 91.2538L113.161 94.2342L112.356 95.3053L106.787 92.8734L110.369 97.9503L109.732 98.7974L103.83 96.8081L107.761 101.421L106.985 102.453Z" fill="#B5B5B5"/>
<path d="M92.6339 103.209L93.6129 102.376L96.4298 105.688C96.6571 105.955 96.8853 106.192 97.1144 106.398C97.3465 106.608 97.5602 106.743 97.7557 106.804C97.9665 106.876 98.183 106.877 98.4052 106.808C98.6304 106.742 98.8732 106.598 99.1335 106.377C99.4008 106.149 99.6242 105.846 99.8035 105.466C99.9829 105.086 100.119 104.68 100.212 104.248L96.5184 99.905L97.4973 99.0723L102.445 104.889L101.466 105.721L100.916 105.076C100.827 105.589 100.679 106.055 100.474 106.475C100.268 106.895 99.994 107.251 99.6504 107.544C99.022 108.078 98.3821 108.296 97.7304 108.198C97.0788 108.101 96.4504 107.696 95.845 106.984L92.6339 103.209Z" fill="#B5B5B5"/>
<path d="M72.0132 117.821L72.2412 116.981L75.0083 117.747L74.3318 115.381L75.1835 115.152L75.7875 117.538L77.7925 115.486L78.4163 116.098L76.2668 118.139L79.1488 118.831L78.9142 119.673L76.1471 118.907L76.8219 121.267L75.9701 121.495L75.3812 119.112L73.3593 121.154L72.7421 120.541L74.8886 118.515L72.0132 117.821Z" fill="#B5B5B5"/>
</svg>
